<svg
  xmlns="http://www.w3.org/2000/svg"
  width="24"
  height="24"
  viewBox="0 0 24 24"
  fill="currentColor"
  role="img"
  aria-hidden="true"
  focusable="false"
  preserveAspectRatio="xMidYMid meet"
>
  <!-- Primary person representing the delegate -->
  <path d="M12 12c2.21 0 4-1.79 4-4s-1.79-4-4-4-4 1.79-4 4 1.79 4 4 4zm0-6c1.1 0 2 .9 2 2s-.9 2-2 2-2-.9-2-2 .9-2 2-2zm0 7c-2.67 0-8 1.34-8 4v2c0 .55.45 1 1 1h14c.55 0 1-.45 1-1v-2c0-2.66-5.33-4-8-4zm6 5H6v-.99c.2-.72 3.3-2.01 6-2.01s5.8 1.29 6 2v1z"/>
  
  <!-- Secondary smaller person indicating delegation/management -->
  <path d="M17.5 9.5c1.38 0 2.5-1.12 2.5-2.5S18.88 4.5 17.5 4.5 15 5.62 15 7s1.12 2.5 2.5 2.5zm0-3.5c.55 0 1 .45 1 1s-.45 1-1 1-1-.45-1-1 .45-1 1-1z"/>
  
  <!-- Connection line between figures symbolizing relationship -->
  <path d="M17.5 10.5c-1.84 0-5.5.92-5.5 2.75V14c0 .55.45 1 1 1h9c.55 0 1-.45 1-1v-.75c0-1.83-3.66-2.75-5.5-2.75zm3.5 2.5h-7v-.25c.16-.39 2.36-1.25 3.5-1.25s3.34.86 3.5 1.25V13z"/>
</svg>